<svg width="24" height="24" viewBox="0 0 24 24" fill="none" 
    xmlns="http://www.w3.org/2000/svg">
    <path d="M22.1514 13.2545C21.3138 13.338 20.556 12.8615 20.206 12.1174L19.213 12.2044L18.4634 12.5642C18.2919 12.6462 18.1765 12.8092 18.1502 12.9964C18.0794 13.501 17.9509 13.9871 17.7724 14.449C17.7117 14.6054 17.7223 14.78 17.8047 14.9259L18.0718 15.4009L18.2811 15.3632C18.6726 15.2142 19.1284 15.25 19.5032 15.5C20.1385 15.9242 20.2908 16.7971 19.8183 17.4115C19.4116 17.9408 18.6554 18.0862 18.0798 17.7461C17.713 17.5297 17.4915 17.1705 17.4373 16.7866L17.1477 16.771L16.6297 16.7081C16.4516 16.6864 16.2746 16.7473 16.1451 16.8706C15.708 17.2847 15.2143 17.6404 14.6776 17.9252C14.497 18.0208 14.3812 18.2044 14.3686 18.4072L14.3028 19.4507L14.6286 20.7362C15.183 20.8902 15.6413 21.3274 15.792 21.9222C16.0196 22.8213 15.4581 23.7335 14.5426 23.9362C13.7165 24.1194 12.8692 23.6404 12.6067 22.8399C12.4024 22.215 12.59 21.5689 13.022 21.1468L12.6947 19.8537L12.1894 19.0457C12.0538 18.8288 11.8141 18.7005 11.5571 18.701C11.5556 18.701 11.5546 18.701 11.553 18.701C11.1104 18.701 10.6774 18.6573 10.2586 18.5752C10.0092 18.5259 9.75174 18.6044 9.57672 18.7881L8.90901 19.4889L8.16138 21.0316C8.3364 21.3853 8.35208 21.8125 8.16694 22.1954C7.8341 22.8817 6.98529 23.1544 6.30696 22.775C5.72625 22.4495 5.47485 21.731 5.72777 21.1171C5.90026 20.6985 6.25789 20.4188 6.66257 20.3252L7.41475 18.7725L7.56246 17.7305C7.58927 17.5383 7.51542 17.3445 7.36366 17.2228C6.76525 16.7398 6.25233 16.1566 5.85119 15.4985C5.75154 15.335 5.57248 15.2359 5.38026 15.2344L4.33418 15.2243L4.25562 15.0492C4.17519 15.7576 3.68756 16.3871 2.96015 16.6145C1.98287 16.9204 0.941845 16.3861 0.624683 15.42C0.30752 14.4545 0.843206 13.3984 1.81291 13.0794C2.49175 12.856 3.20498 13.0417 3.68756 13.498L4.90309 13.1176L4.72418 13.0215C4.8562 12.9284 4.92652 12.7725 4.91336 12.6125C4.89869 12.4349 4.89111 12.2557 4.89111 12.0746C4.89111 11.0905 5.10862 10.1561 5.49711 9.31587C5.55376 9.1926 5.55224 9.05071 5.49255 8.92895L5.22952 8.39411L4.51577 7.85826C4.11616 7.98555 3.66343 7.92467 3.30327 7.65449C2.69221 7.19562 2.58902 6.31562 3.09486 5.72845C3.53039 5.22279 4.29371 5.11914 4.84963 5.49046C5.20372 5.72694 5.40504 6.09725 5.43742 6.48367L6.22855 7.07738L7.02576 7.21876C7.60596 6.68291 8.28227 6.2487 9.02535 5.9443L9.21251 4.81323L8.97629 3.64493C8.27721 3.46581 7.70966 2.93298 7.55689 2.22254C7.34141 1.21876 8.03491 0.241152 9.10629 0.039391C10.1772 -0.16237 11.2202 0.48719 11.4357 1.49096C11.5971 2.24216 11.2495 2.97826 10.6152 3.38581L10.8383 4.48769L11.3861 5.35713C11.422 5.41398 11.4848 5.4482 11.552 5.4482C12.8075 5.4482 13.9821 5.79537 14.9852 6.39813C15.0403 6.43084 15.1081 6.43537 15.1663 6.4082L16.0242 6.01272L17.0257 4.93499C16.9656 4.54857 17.0763 4.13901 17.3642 3.82958C17.8842 3.27059 18.7744 3.2565 19.3117 3.81549C19.7826 4.30606 19.8008 5.08845 19.3536 5.60065C19.0643 5.93222 18.649 6.08518 18.2433 6.05499L17.2417 7.13272L16.9165 8.00316C16.8937 8.06354 16.9038 8.13096 16.9418 8.18329C17.3368 8.72266 17.652 9.32342 17.8695 9.96845C17.9297 10.1456 18.0713 10.2834 18.2524 10.3342L19.0668 10.5612L20.125 10.4681C20.3845 9.72392 21.0325 9.1609 21.8282 9.0814C22.9223 8.97222 23.8819 9.81801 23.971 10.9702C24.0605 12.1224 23.2456 13.1453 22.1514 13.2545Z" fill="#EB5569"/>
</svg>
