<svg width="375" height="280" viewBox="0 0 375 280" fill="none" 
    xmlns="http://www.w3.org/2000/svg">
    <g clip-path="url(#clip0)">
        <g opacity="0.8">
            <g clip-path="url(#clip1)">
                <path d="M90.6133 234.824C85.3778 235.346 80.6419 232.368 78.4541 227.717L72.248 228.261L67.5627 230.509C66.4909 231.022 65.7701 232.041 65.6057 233.211C65.1631 236.365 64.3601 239.403 63.244 242.289C62.8647 243.267 62.9311 244.359 63.4464 245.27L65.1157 248.239L66.4234 248.003C68.8704 247.072 71.719 247.296 74.0616 248.859C78.0325 251.509 78.9841 256.965 76.0313 260.805C73.4894 264.113 68.763 265.022 65.1651 262.896C62.8731 261.544 61.4883 259.299 61.15 256.899L59.3396 256.802L56.1022 256.409C54.9893 256.274 53.8828 256.654 53.0735 257.425C50.3419 260.013 47.2563 262.236 43.9019 264.016C42.7733 264.613 42.0493 265.761 41.9702 267.028L41.5592 273.55L43.5953 281.585C47.0603 282.547 49.9246 285.28 50.8667 288.997C52.2894 294.616 48.7801 300.318 43.0578 301.585C37.895 302.73 32.5995 299.736 30.9587 294.733C29.6814 290.827 30.8544 286.789 33.5543 284.151L31.5088 276.069L28.3504 271.019C27.5032 269.664 26.0046 268.862 24.3985 268.865C24.3891 268.865 24.3827 268.865 24.3733 268.865C21.6069 268.865 18.9007 268.591 16.2829 268.079C14.7243 267.77 13.1151 268.261 12.0212 269.409L7.84803 273.789L3.17532 283.431C4.2692 285.642 4.3672 288.311 3.21009 290.704C1.12981 294.994 -4.1752 296.698 -8.41479 294.327C-12.0442 292.293 -13.6155 287.802 -12.0347 283.965C-10.9566 281.349 -8.72145 279.601 -6.19225 279.016L-1.49108 269.311L-0.567917 262.799C-0.400356 261.598 -0.861938 260.387 -1.81039 259.626C-5.55046 256.607 -8.75623 252.962 -11.2633 248.849C-11.8861 247.827 -13.0053 247.208 -14.2067 247.198L-20.7447 247.135L-21.2357 246.041C-21.7384 250.469 -24.7861 254.403 -29.3323 255.824C-35.4404 257.736 -41.9467 254.396 -43.929 248.359C-45.9113 242.324 -42.5632 235.723 -36.5026 233.73C-32.2599 232.333 -27.8021 233.494 -24.7861 236.346L-17.1889 233.969L-18.3072 233.368C-17.482 232.786 -17.0426 231.811 -17.1248 230.811C-17.2164 229.701 -17.2639 228.582 -17.2639 227.45C-17.2639 221.299 -15.9044 215.459 -13.4764 210.208C-13.1223 209.437 -13.1318 208.55 -13.5048 207.789L-15.1488 204.447L-19.6097 201.098C-22.1073 201.893 -24.9368 201.513 -27.1878 199.824C-31.007 196.956 -31.6519 191.456 -28.4904 187.786C-25.7683 184.626 -20.9976 183.978 -17.5231 186.299C-15.31 187.777 -14.0518 190.091 -13.8494 192.506L-8.90482 196.217L-3.92228 197.101C-0.296024 193.752 3.93091 191.038 8.57517 189.135L9.74493 182.066L8.26851 174.764C3.8993 173.645 0.352085 170.315 -0.602692 165.874C-1.9495 159.601 2.38494 153.491 9.08102 152.23C15.7739 150.969 22.293 155.028 23.6398 161.302C24.6483 165.997 22.4763 170.598 18.5118 173.145L19.906 180.031L23.33 185.465C23.5544 185.821 23.9464 186.035 24.3669 186.035C32.2138 186.035 39.5548 188.204 45.8241 191.972C46.1687 192.176 46.5924 192.204 46.9559 192.035L52.3179 189.563L58.5777 182.827C58.2014 180.412 58.8938 177.852 60.6927 175.918C63.9427 172.425 69.507 172.337 72.8645 175.83C75.8079 178.896 75.9217 183.786 73.1269 186.987C71.3185 189.06 68.7229 190.016 66.1874 189.827L59.9276 196.563L57.8948 202.003C57.7525 202.381 57.8157 202.802 58.0528 203.129C60.522 206.5 62.4916 210.255 63.851 214.286C64.2273 215.393 65.1125 216.255 66.2443 216.572L71.3344 217.991L77.9482 217.409C79.5701 212.758 83.62 209.239 88.593 208.742C95.4314 208.06 101.429 213.346 101.985 220.547C102.545 227.748 97.4516 234.142 90.6133 234.824Z" fill="#EB5569"/>
                <circle cx="23.75" cy="228.5" r="33" fill="#F58A97"/>
                <path fill-rule="evenodd" clip-rule="evenodd" d="M29.75 196.044C14.3893 198.866 2.75 212.324 2.75 228.5C2.75 244.676 14.3893 258.134 29.75 260.956C27.8043 261.313 25.799 261.5 23.75 261.5C5.5246 261.5 -9.25 246.725 -9.25 228.5C-9.25 210.275 5.5246 195.5 23.75 195.5C25.799 195.5 27.8043 195.687 29.75 196.044Z" fill="#F07281"/>
                <circle cx="17.75" cy="219.5" r="7.5" fill="#EB5569"/>
                <circle cx="25.25" cy="242" r="6" fill="#EB5569"/>
                <circle cx="43.25" cy="222.5" r="4.5" fill="#EB5569"/>
            </g>
        </g>
        <g opacity="0.8" filter="url(#filter0_f)">
            <g clip-path="url(#clip2)">
                <path d="M391.076 81.216C387.585 81.564 384.428 79.5787 382.969 76.478L378.832 76.8407L375.708 78.3397C374.994 78.6814 374.513 79.3606 374.404 80.1405C374.109 82.2432 373.573 84.2684 372.829 86.1929C372.576 86.8449 372.621 87.5724 372.964 88.1803L374.077 90.1594L374.949 90.0021C376.58 89.3816 378.479 89.5304 380.041 90.5724C382.688 92.3397 383.323 95.977 381.354 98.5367C379.66 100.742 376.509 101.348 374.11 99.9308C372.582 99.0294 371.659 97.5325 371.433 95.9329L370.226 95.868L368.068 95.6059C367.326 95.5158 366.589 95.7694 366.049 96.2831C364.228 98.0084 362.171 99.4906 359.935 100.677C359.182 101.076 358.7 101.841 358.647 102.686L358.373 107.034L359.73 112.39C362.04 113.031 363.95 114.853 364.578 117.331C365.526 121.078 363.187 124.878 359.372 125.723C355.93 126.486 352.4 124.491 351.306 121.155C350.454 118.551 351.236 115.86 353.036 114.101L351.673 108.713L349.567 105.346C349.002 104.442 348.003 103.908 346.932 103.91C346.926 103.91 346.922 103.91 346.916 103.91C345.071 103.91 343.267 103.727 341.522 103.386C340.483 103.18 339.41 103.507 338.681 104.273L335.899 107.193L332.784 113.621C333.513 115.094 333.578 116.874 332.807 118.47C331.42 121.329 327.883 122.465 325.057 120.885C322.637 119.528 321.59 116.535 322.644 113.977C323.362 112.233 324.852 111.067 326.539 110.677L329.673 104.208L330.288 99.8659C330.4 99.065 330.092 98.2579 329.46 97.7505C326.966 95.738 324.829 93.3082 323.158 90.5661C322.743 89.8847 321.996 89.4717 321.196 89.4654L316.837 89.4235L316.51 88.694C316.174 91.6457 314.143 94.2684 311.112 95.216C307.04 96.4906 302.702 94.2642 301.381 90.239C300.059 86.216 302.291 81.8155 306.332 80.4864C309.16 79.5556 312.132 80.3292 314.143 82.2306L319.207 80.6457L318.462 80.2453C319.012 79.8575 319.305 79.2076 319.25 78.5409C319.189 77.8009 319.157 77.0545 319.157 76.2998C319.157 72.1992 320.064 68.3061 321.682 64.8051C321.918 64.2914 321.912 63.7002 321.663 63.1929L320.567 60.9644L317.594 58.7317C315.928 59.2621 314.042 59.0084 312.541 57.8826C309.995 55.9707 309.565 52.304 311.673 49.8575C313.488 47.7506 316.668 47.3187 318.985 48.8659C320.46 49.8512 321.299 51.3942 321.434 53.0042L324.73 55.478L328.052 56.0671C330.469 53.8344 333.287 52.0252 336.383 50.7568L337.163 46.0441L336.179 41.1761C333.266 40.4298 330.901 38.2097 330.265 35.2495C329.367 31.0671 332.257 26.9937 336.721 26.1531C341.183 25.3124 345.529 28.0189 346.427 32.2013C347.099 35.3313 345.651 38.3984 343.008 40.0965L343.937 44.6877L346.22 48.3103C346.37 48.5472 346.631 48.6898 346.911 48.6898C352.143 48.6898 357.037 50.1363 361.216 52.6478C361.446 52.7841 361.728 52.803 361.971 52.6898L365.545 51.042L369.718 46.5514C369.468 44.9413 369.929 43.2348 371.128 41.9455C373.295 39.6164 377.005 39.5577 379.243 41.8868C381.205 43.9308 381.281 47.1908 379.418 49.325C378.212 50.7065 376.482 51.3438 374.792 51.2181L370.618 55.7086L369.263 59.3355C369.168 59.587 369.21 59.868 369.369 60.086C371.015 62.3334 372.328 64.8365 373.234 67.5241C373.485 68.2621 374.075 68.8365 374.83 69.0482L378.223 69.9937L382.632 69.6059C383.713 66.5053 386.413 64.1594 389.729 63.8281C394.288 63.3732 398.286 66.8973 398.657 71.6981C399.03 76.499 395.634 80.761 391.076 81.216Z" fill="#EB5569"/>
                <circle cx="346.5" cy="77" r="22" fill="#F58A97"/>
                <path fill-rule="evenodd" clip-rule="evenodd" d="M350.5 55.3628C340.26 57.2438 332.5 66.2157 332.5 77C332.5 87.7843 340.26 96.7562 350.5 98.6372C349.203 98.8755 347.866 99 346.5 99C334.35 99 324.5 89.1503 324.5 77C324.5 64.8497 334.35 55 346.5 55C347.866 55 349.203 55.1245 350.5 55.3628Z" fill="#F07281"/>
                <circle cx="342.5" cy="71" r="5" fill="#EB5569"/>
                <circle cx="347.5" cy="86" r="4" fill="#EB5569"/>
                <circle cx="359.5" cy="73" r="3" fill="#EB5569"/>
            </g>
        </g>
        <g opacity="0.8" filter="url(#filter1_f)">
            <g clip-path="url(#clip3)">
                <path d="M369.038 243.608C367.293 243.782 365.714 242.789 364.985 241.239L362.916 241.42L361.354 242.17C360.997 242.341 360.757 242.68 360.702 243.07C360.554 244.122 360.287 245.134 359.915 246.096C359.788 246.422 359.81 246.786 359.982 247.09L360.539 248.08L360.974 248.001C361.79 247.691 362.74 247.765 363.521 248.286C364.844 249.17 365.161 250.988 364.177 252.268C363.33 253.371 361.754 253.674 360.555 252.965C359.791 252.515 359.329 251.766 359.217 250.966L358.613 250.934L357.534 250.803C357.163 250.758 356.794 250.885 356.524 251.142C355.614 252.004 354.585 252.745 353.467 253.339C353.091 253.538 352.85 253.92 352.823 254.343L352.686 256.517L353.365 259.195C354.52 259.516 355.475 260.427 355.789 261.666C356.263 263.539 355.093 265.439 353.186 265.862C351.465 266.243 349.7 265.245 349.153 263.578C348.727 262.276 349.118 260.93 350.018 260.05L349.336 257.356L348.283 255.673C348.001 255.221 347.502 254.954 346.966 254.955C346.963 254.955 346.961 254.955 346.958 254.955C346.036 254.955 345.134 254.864 344.261 254.693C343.741 254.59 343.205 254.754 342.84 255.136L341.449 256.596L339.892 259.81C340.256 260.547 340.289 261.437 339.903 262.235C339.21 263.665 337.442 264.233 336.028 263.442C334.819 262.764 334.295 261.267 334.822 259.988C335.181 259.116 335.926 258.534 336.769 258.339L338.336 255.104L338.644 252.933C338.7 252.533 338.546 252.129 338.23 251.875C336.983 250.869 335.915 249.654 335.079 248.283C334.871 247.942 334.498 247.736 334.098 247.733L331.918 247.712L331.755 247.347C331.587 248.823 330.571 250.134 329.056 250.608C327.02 251.245 324.851 250.132 324.19 248.12C323.53 246.108 324.646 243.908 326.666 243.243C328.08 242.778 329.566 243.165 330.571 244.115L333.104 243.323L332.731 243.123C333.006 242.929 333.152 242.604 333.125 242.27C333.095 241.9 333.079 241.527 333.079 241.15C333.079 239.1 333.532 237.153 334.341 235.403C334.459 235.146 334.456 234.85 334.332 234.596L333.784 233.482L332.297 232.366C331.464 232.631 330.521 232.504 329.771 231.941C328.498 230.985 328.283 229.152 329.337 227.929C330.244 226.875 331.834 226.659 332.992 227.433C333.73 227.926 334.149 228.697 334.217 229.502L335.865 230.739L337.526 231.034C338.735 229.917 340.144 229.013 341.692 228.378L342.082 226.022L341.59 223.588C340.133 223.215 338.951 222.105 338.632 220.625C338.184 218.534 339.628 216.497 341.86 216.077C344.091 215.656 346.264 217.009 346.713 219.101C347.049 220.666 346.325 222.199 345.004 223.048L345.469 225.344L346.61 227.155C346.685 227.274 346.815 227.345 346.956 227.345C349.571 227.345 352.018 228.068 354.108 229.324C354.223 229.392 354.364 229.401 354.485 229.345L356.273 228.521L358.359 226.276C358.234 225.471 358.465 224.617 359.064 223.973C360.148 222.808 362.002 222.779 363.122 223.943C364.103 224.965 364.141 226.595 363.209 227.662C362.606 228.353 361.741 228.672 360.896 228.609L358.809 230.854L358.132 232.668C358.084 232.794 358.105 232.934 358.184 233.043C359.007 234.167 359.664 235.418 360.117 236.762C360.242 237.131 360.537 237.418 360.915 237.524L362.611 237.997L364.816 237.803C365.357 236.253 366.707 235.08 368.364 234.914C370.644 234.687 372.643 236.449 372.828 238.849C373.015 241.249 371.317 243.381 369.038 243.608Z" fill="#EB5569"/>
                <circle cx="346.75" cy="241.5" r="11" fill="#F58A97"/>
                <path fill-rule="evenodd" clip-rule="evenodd" d="M348.75 230.681C343.63 231.622 339.75 236.108 339.75 241.5C339.75 246.892 343.63 251.378 348.75 252.319C348.101 252.438 347.433 252.5 346.75 252.5C340.675 252.5 335.75 247.575 335.75 241.5C335.75 235.425 340.675 230.5 346.75 230.5C347.433 230.5 348.101 230.562 348.75 230.681Z" fill="#F07281"/>
                <circle cx="344.75" cy="238.5" r="2.5" fill="#EB5569"/>
                <circle cx="347.25" cy="246" r="2" fill="#EB5569"/>
                <circle cx="353.25" cy="239.5" r="1.5" fill="#EB5569"/>
            </g>
        </g>
    </g>
    <defs>
        <filter id="filter0_f" x="299" y="24" width="104" height="104" filterUnits="userSpaceOnUse" color-interpolation-filters="sRGB">
            <feFlood flood-opacity="0" result="BackgroundImageFix"/>
            <feBlend mode="normal" in="SourceGraphic" in2="BackgroundImageFix" result="shape"/>
            <feGaussianBlur stdDeviation="1" result="effect1_foregroundBlur"/>
        </filter>
        <filter id="filter1_f" x="320" y="212" width="58" height="58" filterUnits="userSpaceOnUse" color-interpolation-filters="sRGB">
            <feFlood flood-opacity="0" result="BackgroundImageFix"/>
            <feBlend mode="normal" in="SourceGraphic" in2="BackgroundImageFix" result="shape"/>
            <feGaussianBlur stdDeviation="2" result="effect1_foregroundBlur"/>
        </filter>
        <clipPath id="clip0">
            <rect width="375" height="280" fill="white"/>
        </clipPath>
        <clipPath id="clip1">
            <rect x="-44.5" y="152" width="150" height="150" fill="white"/>
        </clipPath>
        <clipPath id="clip2">
            <rect x="301" y="26" width="100" height="100" fill="white"/>
        </clipPath>
        <clipPath id="clip3">
            <rect x="324" y="216" width="50" height="50" fill="white"/>
        </clipPath>
    </defs>
</svg>
