<svg width="24" height="24" viewBox="0 0 24 24" fill="none" 
    xmlns="http://www.w3.org/2000/svg">
    <path d="M22.1516 13.2545C21.3139 13.338 20.5561 12.8615 20.2061 12.1174L19.2131 12.2044L18.4635 12.5642C18.292 12.6462 18.1767 12.8092 18.1504 12.9964C18.0795 13.501 17.9511 13.9871 17.7725 14.449C17.7118 14.6054 17.7224 14.78 17.8049 14.9259L18.072 15.4009L18.2812 15.3632C18.6727 15.2142 19.1285 15.25 19.5033 15.5C20.1386 15.9242 20.2909 16.7971 19.8184 17.4115C19.4118 17.9408 18.6555 18.0862 18.0799 17.7461C17.7131 17.5297 17.4916 17.1705 17.4375 16.7866L17.1478 16.771L16.6298 16.7081C16.4517 16.6864 16.2747 16.7473 16.1452 16.8706C15.7082 17.2847 15.2145 17.6404 14.6778 17.9252C14.4972 18.0208 14.3813 18.2044 14.3687 18.4072L14.3029 19.4507L14.6287 20.7362C15.1831 20.8902 15.6414 21.3274 15.7921 21.9222C16.0198 22.8213 15.4583 23.7335 14.5427 23.9362C13.7167 24.1194 12.8694 23.6404 12.6068 22.8399C12.4025 22.215 12.5901 21.5689 13.0221 21.1468L12.6949 19.8537L12.1895 19.0457C12.054 18.8288 11.8142 18.7005 11.5572 18.701C11.5557 18.701 11.5547 18.701 11.5532 18.701C11.1106 18.701 10.6776 18.6573 10.2587 18.5752C10.0093 18.5259 9.75187 18.6044 9.57684 18.7881L8.90913 19.4889L8.1615 21.0316C8.33652 21.3853 8.3522 21.8125 8.16706 22.1954C7.83422 22.8817 6.98541 23.1544 6.30708 22.775C5.72637 22.4495 5.47497 21.731 5.72789 21.1171C5.90038 20.6985 6.25801 20.4188 6.66269 20.3252L7.41487 18.7725L7.56258 17.7305C7.58939 17.5383 7.51554 17.3445 7.36378 17.2228C6.76537 16.7398 6.25245 16.1566 5.85132 15.4985C5.75167 15.335 5.5726 15.2359 5.38038 15.2344L4.3343 15.2243L4.25574 15.0492C4.17531 15.7576 3.68768 16.3871 2.96028 16.6145C1.98299 16.9204 0.941968 16.3861 0.624805 15.42C0.307642 14.4545 0.843328 13.3984 1.81303 13.0794C2.49187 12.856 3.2051 13.0417 3.68768 13.498L4.90322 13.1176L4.7243 13.0215C4.85633 12.9284 4.92664 12.7725 4.91349 12.6125C4.89882 12.4349 4.89123 12.2557 4.89123 12.0746C4.89123 11.0905 5.10874 10.1561 5.49723 9.31587C5.55388 9.1926 5.55236 9.05071 5.49268 8.92895L5.22964 8.39411L4.51589 7.85826C4.11628 7.98555 3.66355 7.92467 3.30339 7.65449C2.69233 7.19562 2.58914 6.31562 3.09498 5.72845C3.53051 5.22279 4.29383 5.11914 4.84975 5.49046C5.20384 5.72694 5.40516 6.09725 5.43754 6.48367L6.22868 7.07738L7.02588 7.21876C7.60608 6.68291 8.28239 6.2487 9.02548 5.9443L9.21264 4.81323L8.97641 3.64493C8.27734 3.46581 7.70978 2.93298 7.55702 2.22254C7.34153 1.21876 8.03504 0.241152 9.10641 0.039391C10.1773 -0.16237 11.2203 0.48719 11.4358 1.49096C11.5972 2.24216 11.2497 2.97826 10.6153 3.38581L10.8384 4.48769L11.3862 5.35713C11.4222 5.41398 11.4849 5.4482 11.5522 5.4482C12.8077 5.4482 13.9822 5.79537 14.9853 6.39813C15.0404 6.43084 15.1082 6.43537 15.1664 6.4082L16.0243 6.01272L17.0259 4.93499C16.9657 4.54857 17.0765 4.13901 17.3643 3.82958C17.8843 3.27059 18.7746 3.2565 19.3118 3.81549C19.7827 4.30606 19.8009 5.08845 19.3538 5.60065C19.0644 5.93222 18.6491 6.08518 18.2434 6.05499L17.2419 7.13272L16.9166 8.00316C16.8938 8.06354 16.904 8.13096 16.9419 8.18329C17.337 8.72266 17.6521 9.32342 17.8696 9.96845C17.9298 10.1456 18.0714 10.2834 18.2525 10.3342L19.0669 10.5612L20.1252 10.4681C20.3847 9.72392 21.0326 9.1609 21.8283 9.0814C22.9225 8.97222 23.8821 9.81801 23.9711 10.9702C24.0606 12.1224 23.2457 13.1453 22.1516 13.2545Z" fill="#8391A7"/>
</svg>
