<svg width="23" height="22" viewBox="0 0 23 22" fill="none" 
    xmlns="http://www.w3.org/2000/svg">
    <path fill-rule="evenodd" clip-rule="evenodd" d="M8.66657 1.43004C8.88746 1.93623 8.65618 2.52564 8.15 2.74653C6.80259 3.33452 5.61973 4.24362 4.70484 5.39436C3.78994 6.5451 3.17087 7.90243 2.90173 9.3477C2.6326 10.793 2.72161 12.2822 3.16097 13.6851C3.60033 15.088 4.37667 16.3619 5.42211 17.3955C6.46756 18.4291 7.75028 19.1908 9.15813 19.6141C10.566 20.0375 12.0561 20.1095 13.4982 19.8238C14.9403 19.5382 16.2905 18.9037 17.4307 17.9757C18.5709 17.0477 19.4664 15.8546 20.039 14.5005C20.2541 13.9919 20.8408 13.7539 21.3495 13.969C21.8582 14.1841 22.0962 14.7708 21.8811 15.2795C21.1813 16.9344 20.0867 18.3927 18.6931 19.5269C17.2995 20.6611 15.6493 21.4366 13.8868 21.7857C12.1242 22.1348 10.3029 22.0468 8.58224 21.5294C6.86153 21.0121 5.29377 20.081 4.016 18.8178C2.73823 17.5545 1.78937 15.9975 1.25238 14.2828C0.715379 12.5681 0.606595 10.748 0.935535 8.98156C1.26447 7.21513 2.02112 5.55616 3.13933 4.1497C4.25753 2.74324 5.70325 1.63212 7.35008 0.913467C7.85627 0.692576 8.44568 0.923853 8.66657 1.43004Z" fill="#8391A7"/>
    <path fill-rule="evenodd" clip-rule="evenodd" d="M11.0429 0.292893C11.2305 0.105357 11.4848 0 11.75 0C13.1946 0 14.625 0.284523 15.9596 0.837325C17.2941 1.39013 18.5068 2.20038 19.5282 3.22183C20.5497 4.24327 21.3599 5.4559 21.9127 6.79048C22.4655 8.12506 22.75 9.55546 22.75 11C22.75 11.5523 22.3023 12 21.75 12H11.75C11.1978 12 10.75 11.5523 10.75 11V1C10.75 0.734784 10.8554 0.48043 11.0429 0.292893ZM12.75 2.05573V10H20.6943C20.6006 9.16141 20.3891 8.33849 20.065 7.55585C19.6127 6.46392 18.9497 5.47177 18.114 4.63604C17.2783 3.80031 16.2861 3.13738 15.1942 2.68508C14.4115 2.3609 13.5886 2.14949 12.75 2.05573Z" fill="#8391A7"/>
</svg>
