<svg width="23" height="22" viewBox="0 0 23 22" fill="none" 
    xmlns="http://www.w3.org/2000/svg">
    <path fill-rule="evenodd" clip-rule="evenodd" d="M8.66645 1.43004C8.88734 1.93623 8.65606 2.52564 8.14988 2.74653C6.80247 3.33452 5.61961 4.24362 4.70472 5.39436C3.78982 6.5451 3.17075 7.90243 2.90161 9.3477C2.63248 10.793 2.72149 12.2822 3.16085 13.6851C3.60021 15.088 4.37655 16.3619 5.42199 17.3955C6.46744 18.4291 7.75016 19.1908 9.15801 19.6141C10.5659 20.0375 12.056 20.1095 13.4981 19.8238C14.9402 19.5382 16.2903 18.9037 17.4306 17.9757C18.5708 17.0477 19.4663 15.8546 20.0389 14.5005C20.254 13.9919 20.8407 13.7539 21.3494 13.969C21.8581 14.1841 22.0961 14.7708 21.881 15.2795C21.1812 16.9344 20.0866 18.3927 18.693 19.5269C17.2994 20.6611 15.6492 21.4366 13.8866 21.7857C12.1241 22.1348 10.3028 22.0468 8.58212 21.5294C6.86141 21.0121 5.29364 20.081 4.01588 18.8178C2.73811 17.5545 1.78925 15.9975 1.25225 14.2828C0.715257 12.5681 0.606473 10.748 0.935413 8.98156C1.26435 7.21513 2.021 5.55616 3.13921 4.1497C4.25741 2.74324 5.70313 1.63212 7.34996 0.913467C7.85614 0.692576 8.44556 0.923853 8.66645 1.43004Z" fill="#EB5569"/>
    <path fill-rule="evenodd" clip-rule="evenodd" d="M11.0428 0.292893C11.2303 0.105357 11.4847 0 11.7499 0C13.1945 0 14.6249 0.284523 15.9594 0.837325C17.294 1.39013 18.5066 2.20038 19.5281 3.22183C20.5495 4.24327 21.3598 5.4559 21.9126 6.79048C22.4654 8.12506 22.7499 9.55546 22.7499 11C22.7499 11.5523 22.3022 12 21.7499 12H11.7499C11.1976 12 10.7499 11.5523 10.7499 11V1C10.7499 0.734784 10.8553 0.48043 11.0428 0.292893ZM12.7499 2.05573V10H20.6942C20.6004 9.16141 20.389 8.33849 20.0648 7.55585C19.6125 6.46392 18.9496 5.47177 18.1139 4.63604C17.2781 3.80031 16.286 3.13738 15.1941 2.68508C14.4114 2.3609 13.5885 2.14948 12.7499 2.05573Z" fill="#EB5569"/>
</svg>
