<svg width="101" height="100" viewBox="0 0 101 100" fill="none" 
    xmlns="http://www.w3.org/2000/svg">
    <g clip-path="url(#clip0)">
        <path d="M90.5755 55.216C87.0852 55.564 83.9279 53.5787 82.4694 50.478L78.332 50.8407L75.2085 52.3397C74.4939 52.6814 74.0134 53.3606 73.9038 54.1405C73.6087 56.2432 73.0734 58.2684 72.3294 60.1929C72.0764 60.8449 72.1207 61.5724 72.4643 62.1803L73.5771 64.1594L74.449 64.0021C76.0803 63.3816 77.9793 63.5304 79.5411 64.5724C82.1883 66.3397 82.8227 69.977 80.8542 72.5367C79.1596 74.7422 76.0086 75.348 73.6101 73.9309C72.082 73.0294 71.1589 71.5325 70.9333 69.933L69.7264 69.868L67.5681 69.6059C66.8262 69.5158 66.0885 69.7694 65.549 70.2831C63.7279 72.0084 61.6709 73.4906 59.4346 74.6772C58.6822 75.0755 58.1995 75.8407 58.1468 76.6856L57.8728 81.0336L59.2302 86.39C61.5402 87.0315 63.4497 88.8533 64.0778 91.3313C65.0263 95.0776 62.6868 98.8784 58.8719 99.7233C55.43 100.486 51.8997 98.4906 50.8058 95.1552C49.9543 92.5514 50.7362 89.8596 52.5362 88.1007L51.1725 82.7128L49.067 79.3459C48.5021 78.4424 47.5031 77.9078 46.4324 77.9099C46.426 77.9099 46.4218 77.9099 46.4155 77.9099C44.5713 77.9099 42.7671 77.7275 41.022 77.3858C39.9829 77.1803 38.9101 77.5074 38.1808 78.2726L35.3987 81.1929L32.2835 87.6206C33.0128 89.0944 33.0781 90.8743 32.3067 92.4696C30.9199 95.3292 27.3832 96.4654 24.5568 94.8847C22.1372 93.5283 21.0897 90.5346 22.1435 87.977C22.8622 86.2327 24.3524 85.0671 26.0385 84.6772L29.1726 78.2076L29.7881 73.8659C29.8998 73.065 29.592 72.2579 28.9597 71.7506C26.4664 69.738 24.3292 67.3082 22.6578 64.5661C22.2426 63.8847 21.4965 63.4717 20.6955 63.4654L16.3369 63.4235L16.0095 62.694C15.6744 65.6457 13.6426 68.2684 10.6118 69.216C6.53976 70.4906 2.20217 68.2642 0.880656 64.239C-0.440857 60.216 1.79117 55.8156 5.83158 54.4864C8.66008 53.5556 11.6319 54.3292 13.6426 56.2306L18.7074 54.6457L17.9619 54.2453C18.512 53.8575 18.805 53.2076 18.7502 52.5409C18.689 51.8009 18.6574 51.0545 18.6574 50.2998C18.6574 46.1992 19.5637 42.3061 21.1824 38.8051C21.4185 38.2914 21.4122 37.7002 21.1635 37.1929L20.0675 34.9644L17.0935 32.7317C15.4285 33.2621 13.5421 33.0084 12.0414 31.8826C9.49536 29.9707 9.0654 26.304 11.1731 23.8575C12.9878 21.7506 16.1683 21.3187 18.4846 22.8659C19.96 23.8512 20.7988 25.3942 20.9337 27.0042L24.2301 29.478L27.5518 30.0671C29.9693 27.8344 32.7873 26.0252 35.8834 24.7568L36.6633 20.0441L35.679 15.1761C32.7662 14.4298 30.4014 12.2097 29.7649 9.2495C28.867 5.06711 31.7566 0.993738 36.2207 0.153067C40.6826 -0.687604 45.0287 2.0189 45.9265 6.20129C46.5989 9.33127 45.1509 12.3984 42.5079 14.0965L43.4374 18.6877L45.72 22.3103C45.8696 22.5472 46.131 22.6898 46.4113 22.6898C51.6425 22.6898 56.5366 24.1363 60.7161 26.6478C60.9458 26.7841 61.2282 26.803 61.4706 26.6898L65.0452 25.042L69.2184 20.5514C68.9676 18.9413 69.4292 17.2348 70.6285 15.9455C72.7952 13.6164 76.5047 13.5577 78.743 15.8868C80.7053 17.9308 80.7811 21.1908 78.918 23.325C77.7124 24.7065 75.982 25.3438 74.2916 25.2181L70.1184 29.7086L68.7632 33.3355C68.6683 33.587 68.7105 33.868 68.8686 34.086C70.5147 36.3334 71.8277 38.8365 72.734 41.5241C72.9848 42.2621 73.575 42.8365 74.3295 43.0483L77.7229 43.9937L82.1322 43.6059C83.2134 40.5053 85.9133 38.1594 89.2287 37.8281C93.7876 37.3732 97.7859 40.8973 98.1568 45.6981C98.5299 50.499 95.1344 54.761 90.5755 55.216Z" fill="#EB5569"/>
        <circle cx="46" cy="51" r="22" fill="#F58A97"/>
        <path fill-rule="evenodd" clip-rule="evenodd" d="M50 29.3628C39.7595 31.2438 32 40.2157 32 51C32 61.7843 39.7595 70.7562 50 72.6372C48.7029 72.8755 47.366 73 46 73C33.8497 73 24 63.1503 24 51C24 38.8497 33.8497 29 46 29C47.366 29 48.7029 29.1245 50 29.3628Z" fill="#F07281"/>
        <circle cx="42" cy="45" r="5" fill="#EB5569"/>
        <circle cx="47" cy="60" r="4" fill="#EB5569"/>
        <circle cx="59" cy="47" r="3" fill="#EB5569"/>
    </g>
    <defs>
        <clipPath id="clip0">
            <rect x="0.5" width="100" height="100" fill="white"/>
        </clipPath>
    </defs>
</svg>
